<mxfile host="app.diagrams.net" agent="Mozilla/5.0 (X11; Linux x86_64; rv:137.0) Gecko/20100101 Firefox/137.0" version="26.2.5">
  <diagram name="Page-1" id="rd5WgjaN5qs2F5G4zhtr">
    <mxGraphModel dx="1366" dy="1348" grid="1" gridSize="10" guides="1" tooltips="1" connect="1" arrows="1" fold="1" page="1" pageScale="1" pageWidth="850" pageHeight="1100" math="0" shadow="0">
      <root>
        <mxCell id="0" />
        <mxCell id="1" parent="0" />
        <mxCell id="i1IyLrbdU4EnLdiSXplg-6" value="Persona" style="rounded=0;whiteSpace=wrap;html=1;" parent="1" vertex="1">
          <mxGeometry x="1120" y="699.4696189432343" width="200" height="60" as="geometry" />
        </mxCell>
        <mxCell id="i1IyLrbdU4EnLdiSXplg-9" value="" style="group;rotation=90;" parent="1" vertex="1" connectable="0">
          <mxGeometry x="1330" y="692.0011431703006" width="8" height="28" as="geometry" />
        </mxCell>
        <mxCell id="i1IyLrbdU4EnLdiSXplg-10" value="" style="ellipse;whiteSpace=wrap;html=1;aspect=fixed;fillColor=light-dark(#FFFFFF,#FFFFFF);rotation=90;" parent="i1IyLrbdU4EnLdiSXplg-9" vertex="1">
          <mxGeometry x="10" y="10" width="8" height="8" as="geometry" />
        </mxCell>
        <mxCell id="i1IyLrbdU4EnLdiSXplg-11" style="edgeStyle=orthogonalEdgeStyle;rounded=0;orthogonalLoop=1;jettySize=auto;html=1;endArrow=none;startFill=0;" parent="i1IyLrbdU4EnLdiSXplg-9" edge="1">
          <mxGeometry relative="1" as="geometry">
            <mxPoint x="-10" y="14" as="targetPoint" />
            <mxPoint x="10" y="14" as="sourcePoint" />
          </mxGeometry>
        </mxCell>
        <mxCell id="i1IyLrbdU4EnLdiSXplg-16" value="&lt;font style=&quot;font-size: 8px;&quot;&gt;nombre&lt;/font&gt;" style="text;html=1;align=center;verticalAlign=middle;resizable=0;points=[];autosize=1;strokeColor=none;fillColor=none;rotation=0;" parent="1" vertex="1">
          <mxGeometry x="1342" y="704.0011431703008" width="50" height="30" as="geometry" />
        </mxCell>
        <mxCell id="i1IyLrbdU4EnLdiSXplg-21" value="" style="group;rotation=90;" parent="1" vertex="1" connectable="0">
          <mxGeometry x="1330" y="707.0011431703006" width="8" height="28" as="geometry" />
        </mxCell>
        <mxCell id="i1IyLrbdU4EnLdiSXplg-22" value="" style="ellipse;whiteSpace=wrap;html=1;aspect=fixed;fillColor=light-dark(#FFFFFF,transparent);rotation=90;" parent="i1IyLrbdU4EnLdiSXplg-21" vertex="1">
          <mxGeometry x="10" y="10" width="8" height="8" as="geometry" />
        </mxCell>
        <mxCell id="i1IyLrbdU4EnLdiSXplg-23" style="edgeStyle=orthogonalEdgeStyle;rounded=0;orthogonalLoop=1;jettySize=auto;html=1;endArrow=none;startFill=0;" parent="i1IyLrbdU4EnLdiSXplg-21" edge="1">
          <mxGeometry relative="1" as="geometry">
            <mxPoint x="-10" y="14" as="targetPoint" />
            <mxPoint x="10" y="14" as="sourcePoint" />
          </mxGeometry>
        </mxCell>
        <mxCell id="i1IyLrbdU4EnLdiSXplg-24" value="&lt;font style=&quot;font-size: 8px;&quot;&gt;telefono&lt;/font&gt;" style="text;html=1;align=center;verticalAlign=middle;resizable=0;points=[];autosize=1;strokeColor=none;fillColor=none;rotation=-60;" parent="1" vertex="1">
          <mxGeometry x="1705" y="633.0011431702999" width="60" height="30" as="geometry" />
        </mxCell>
        <mxCell id="i1IyLrbdU4EnLdiSXplg-194" value="" style="group;rotation=90;" parent="1" vertex="1" connectable="0">
          <mxGeometry x="1330" y="722.0011431703006" width="8" height="28" as="geometry" />
        </mxCell>
        <mxCell id="i1IyLrbdU4EnLdiSXplg-195" value="" style="ellipse;whiteSpace=wrap;html=1;aspect=fixed;fillColor=light-dark(#FFFFFF,transparent);rotation=90;" parent="i1IyLrbdU4EnLdiSXplg-194" vertex="1">
          <mxGeometry x="10" y="10" width="8" height="8" as="geometry" />
        </mxCell>
        <mxCell id="i1IyLrbdU4EnLdiSXplg-196" style="edgeStyle=orthogonalEdgeStyle;rounded=0;orthogonalLoop=1;jettySize=auto;html=1;endArrow=none;startFill=0;" parent="i1IyLrbdU4EnLdiSXplg-194" edge="1">
          <mxGeometry relative="1" as="geometry">
            <mxPoint x="-10" y="14" as="targetPoint" />
            <mxPoint x="10" y="14" as="sourcePoint" />
          </mxGeometry>
        </mxCell>
        <mxCell id="i1IyLrbdU4EnLdiSXplg-200" value="&lt;font style=&quot;font-size: 8px;&quot;&gt;DNI&lt;/font&gt;" style="text;html=1;align=center;verticalAlign=middle;resizable=0;points=[];autosize=1;strokeColor=none;fillColor=none;rotation=0;" parent="1" vertex="1">
          <mxGeometry x="1340" y="688.0011431703002" width="40" height="30" as="geometry" />
        </mxCell>
        <mxCell id="i1IyLrbdU4EnLdiSXplg-203" value="&lt;font style=&quot;font-size: 8px;&quot;&gt;apellido&lt;/font&gt;" style="text;html=1;align=center;verticalAlign=middle;resizable=0;points=[];autosize=1;strokeColor=none;fillColor=none;rotation=0;" parent="1" vertex="1">
          <mxGeometry x="1342" y="718.0011431703008" width="60" height="30" as="geometry" />
        </mxCell>
        <mxCell id="i1IyLrbdU4EnLdiSXplg-204" value="TelÃ©fono" style="rounded=0;whiteSpace=wrap;html=1;" parent="1" vertex="1">
          <mxGeometry x="1630" y="699.4696189432343" width="200" height="60" as="geometry" />
        </mxCell>
        <mxCell id="i1IyLrbdU4EnLdiSXplg-206" style="edgeStyle=orthogonalEdgeStyle;rounded=0;orthogonalLoop=1;jettySize=auto;html=1;endArrow=none;startFill=0;entryX=1.002;entryY=0.842;entryDx=0;entryDy=0;entryPerimeter=0;" parent="1" source="i1IyLrbdU4EnLdiSXplg-205" target="i1IyLrbdU4EnLdiSXplg-6" edge="1">
          <mxGeometry relative="1" as="geometry">
            <mxPoint x="1330" y="750.0000000000001" as="targetPoint" />
            <Array as="points">
              <mxPoint x="1420" y="730" />
              <mxPoint x="1420" y="750" />
            </Array>
          </mxGeometry>
        </mxCell>
        <mxCell id="i1IyLrbdU4EnLdiSXplg-207" style="edgeStyle=orthogonalEdgeStyle;rounded=0;orthogonalLoop=1;jettySize=auto;html=1;entryX=0;entryY=0.5;entryDx=0;entryDy=0;endArrow=none;startFill=0;" parent="1" source="i1IyLrbdU4EnLdiSXplg-205" target="i1IyLrbdU4EnLdiSXplg-204" edge="1">
          <mxGeometry relative="1" as="geometry" />
        </mxCell>
        <mxCell id="i1IyLrbdU4EnLdiSXplg-205" value="tiene" style="rhombus;whiteSpace=wrap;html=1;" parent="1" vertex="1">
          <mxGeometry x="1460" y="689.47" width="80" height="80" as="geometry" />
        </mxCell>
        <mxCell id="i1IyLrbdU4EnLdiSXplg-208" value="(0,n)" style="text;html=1;align=center;verticalAlign=middle;resizable=0;points=[];autosize=1;strokeColor=none;fillColor=none;" parent="1" vertex="1">
          <mxGeometry x="1412" y="729.47" width="60" height="30" as="geometry" />
        </mxCell>
        <mxCell id="i1IyLrbdU4EnLdiSXplg-209" value="(1,1)" style="text;html=1;align=center;verticalAlign=middle;resizable=0;points=[];autosize=1;strokeColor=none;fillColor=none;" parent="1" vertex="1">
          <mxGeometry x="1530" y="704" width="60" height="30" as="geometry" />
        </mxCell>
        <mxCell id="i1IyLrbdU4EnLdiSXplg-210" value="" style="group;rotation=0;" parent="1" vertex="1" connectable="0">
          <mxGeometry x="1726" y="671.0011431703006" width="8" height="28" as="geometry" />
        </mxCell>
        <mxCell id="i1IyLrbdU4EnLdiSXplg-211" value="" style="ellipse;whiteSpace=wrap;html=1;aspect=fixed;fillColor=light-dark(#FFFFFF,#FFFFFF);rotation=0;" parent="i1IyLrbdU4EnLdiSXplg-210" vertex="1">
          <mxGeometry width="8" height="8" as="geometry" />
        </mxCell>
        <mxCell id="i1IyLrbdU4EnLdiSXplg-212" style="edgeStyle=orthogonalEdgeStyle;rounded=0;orthogonalLoop=1;jettySize=auto;html=1;endArrow=none;startFill=0;" parent="i1IyLrbdU4EnLdiSXplg-210" edge="1">
          <mxGeometry relative="1" as="geometry">
            <mxPoint x="4" y="28" as="targetPoint" />
            <mxPoint x="4" y="8" as="sourcePoint" />
          </mxGeometry>
        </mxCell>
        <mxCell id="i1IyLrbdU4EnLdiSXplg-213" value="Cliente" style="rounded=0;whiteSpace=wrap;html=1;" parent="1" vertex="1">
          <mxGeometry x="960" y="959.9996189432343" width="200" height="60" as="geometry" />
        </mxCell>
        <mxCell id="i1IyLrbdU4EnLdiSXplg-221" style="edgeStyle=orthogonalEdgeStyle;rounded=0;orthogonalLoop=1;jettySize=auto;html=1;entryX=0.5;entryY=1;entryDx=0;entryDy=0;endArrow=none;startFill=0;" parent="1" source="i1IyLrbdU4EnLdiSXplg-214" target="i1IyLrbdU4EnLdiSXplg-220" edge="1">
          <mxGeometry relative="1" as="geometry" />
        </mxCell>
        <mxCell id="i1IyLrbdU4EnLdiSXplg-292" style="edgeStyle=orthogonalEdgeStyle;rounded=0;orthogonalLoop=1;jettySize=auto;html=1;entryX=0.5;entryY=0;entryDx=0;entryDy=0;endArrow=none;startFill=0;" parent="1" source="i1IyLrbdU4EnLdiSXplg-214" target="i1IyLrbdU4EnLdiSXplg-291" edge="1">
          <mxGeometry relative="1" as="geometry" />
        </mxCell>
        <mxCell id="i1IyLrbdU4EnLdiSXplg-364" style="edgeStyle=orthogonalEdgeStyle;rounded=0;orthogonalLoop=1;jettySize=auto;html=1;endArrow=none;startFill=0;entryX=0.5;entryY=0;entryDx=0;entryDy=0;" parent="1" source="i1IyLrbdU4EnLdiSXplg-214" target="i1IyLrbdU4EnLdiSXplg-363" edge="1">
          <mxGeometry relative="1" as="geometry" />
        </mxCell>
        <mxCell id="i1IyLrbdU4EnLdiSXplg-214" value="Empleado" style="rounded=0;whiteSpace=wrap;html=1;" parent="1" vertex="1">
          <mxGeometry x="1280" y="959.9996189432343" width="200" height="60" as="geometry" />
        </mxCell>
        <mxCell id="i1IyLrbdU4EnLdiSXplg-222" style="edgeStyle=orthogonalEdgeStyle;rounded=0;orthogonalLoop=1;jettySize=auto;html=1;endArrow=none;startFill=0;" parent="1" source="i1IyLrbdU4EnLdiSXplg-219" target="i1IyLrbdU4EnLdiSXplg-213" edge="1">
          <mxGeometry relative="1" as="geometry" />
        </mxCell>
        <mxCell id="i1IyLrbdU4EnLdiSXplg-219" value="es_un1" style="rhombus;whiteSpace=wrap;html=1;" parent="1" vertex="1">
          <mxGeometry x="1020" y="830" width="80" height="80" as="geometry" />
        </mxCell>
        <mxCell id="i1IyLrbdU4EnLdiSXplg-220" value="es_un2" style="rhombus;whiteSpace=wrap;html=1;" parent="1" vertex="1">
          <mxGeometry x="1340" y="830" width="80" height="80" as="geometry" />
        </mxCell>
        <mxCell id="i1IyLrbdU4EnLdiSXplg-223" value="" style="endArrow=none;html=1;rounded=0;exitX=0.5;exitY=0;exitDx=0;exitDy=0;entryX=0.25;entryY=1;entryDx=0;entryDy=0;" parent="1" source="i1IyLrbdU4EnLdiSXplg-219" target="i1IyLrbdU4EnLdiSXplg-6" edge="1">
          <mxGeometry width="50" height="50" relative="1" as="geometry">
            <mxPoint x="1300" y="980" as="sourcePoint" />
            <mxPoint x="1350" y="930" as="targetPoint" />
          </mxGeometry>
        </mxCell>
        <mxCell id="i1IyLrbdU4EnLdiSXplg-224" value="" style="endArrow=none;html=1;rounded=0;exitX=0.75;exitY=1;exitDx=0;exitDy=0;entryX=0.5;entryY=0;entryDx=0;entryDy=0;" parent="1" source="i1IyLrbdU4EnLdiSXplg-6" target="i1IyLrbdU4EnLdiSXplg-220" edge="1">
          <mxGeometry width="50" height="50" relative="1" as="geometry">
            <mxPoint x="1300" y="980" as="sourcePoint" />
            <mxPoint x="1350" y="930" as="targetPoint" />
          </mxGeometry>
        </mxCell>
        <mxCell id="i1IyLrbdU4EnLdiSXplg-225" value="(0,1)" style="text;html=1;align=center;verticalAlign=middle;resizable=0;points=[];autosize=1;strokeColor=none;fillColor=none;" parent="1" vertex="1">
          <mxGeometry x="1060" y="769.47" width="60" height="30" as="geometry" />
        </mxCell>
        <mxCell id="i1IyLrbdU4EnLdiSXplg-226" value="(0,1)" style="text;html=1;align=center;verticalAlign=middle;resizable=0;points=[];autosize=1;strokeColor=none;fillColor=none;" parent="1" vertex="1">
          <mxGeometry x="1310" y="769.47" width="60" height="30" as="geometry" />
        </mxCell>
        <mxCell id="i1IyLrbdU4EnLdiSXplg-227" value="(1,1)" style="text;html=1;align=center;verticalAlign=middle;resizable=0;points=[];autosize=1;strokeColor=none;fillColor=none;" parent="1" vertex="1">
          <mxGeometry x="1320" y="910" width="60" height="30" as="geometry" />
        </mxCell>
        <mxCell id="i1IyLrbdU4EnLdiSXplg-228" value="(1,1)" style="text;html=1;align=center;verticalAlign=middle;resizable=0;points=[];autosize=1;strokeColor=none;fillColor=none;" parent="1" vertex="1">
          <mxGeometry x="1060" y="910" width="60" height="30" as="geometry" />
        </mxCell>
        <mxCell id="i1IyLrbdU4EnLdiSXplg-229" value="" style="curved=1;endArrow=none;html=1;rounded=0;startFill=0;" parent="1" edge="1">
          <mxGeometry width="50" height="50" relative="1" as="geometry">
            <mxPoint x="1110" y="798" as="sourcePoint" />
            <mxPoint x="1089" y="949" as="targetPoint" />
            <Array as="points">
              <mxPoint x="980" y="840" />
              <mxPoint x="1010" y="940" />
              <mxPoint x="1060" y="950" />
            </Array>
          </mxGeometry>
        </mxCell>
        <mxCell id="i1IyLrbdU4EnLdiSXplg-230" value="" style="group;rotation=90;" parent="1" vertex="1" connectable="0">
          <mxGeometry x="1079" y="935.0011431703006" width="8" height="28" as="geometry" />
        </mxCell>
        <mxCell id="i1IyLrbdU4EnLdiSXplg-231" value="" style="ellipse;whiteSpace=wrap;html=1;aspect=fixed;fillColor=light-dark(#FFFFFF,#FFFFFF);rotation=90;" parent="i1IyLrbdU4EnLdiSXplg-230" vertex="1">
          <mxGeometry x="10" y="10" width="8" height="8" as="geometry" />
        </mxCell>
        <mxCell id="i1IyLrbdU4EnLdiSXplg-286" value="" style="group;rotation=90;" parent="1" vertex="1" connectable="0">
          <mxGeometry x="1490" y="956.0011431703006" width="8" height="28" as="geometry" />
        </mxCell>
        <mxCell id="i1IyLrbdU4EnLdiSXplg-287" value="" style="ellipse;whiteSpace=wrap;html=1;aspect=fixed;fillColor=light-dark(#FFFFFF,#FFFFFF);rotation=90;" parent="i1IyLrbdU4EnLdiSXplg-286" vertex="1">
          <mxGeometry x="10" y="10" width="8" height="8" as="geometry" />
        </mxCell>
        <mxCell id="i1IyLrbdU4EnLdiSXplg-288" style="edgeStyle=orthogonalEdgeStyle;rounded=0;orthogonalLoop=1;jettySize=auto;html=1;endArrow=none;startFill=0;" parent="i1IyLrbdU4EnLdiSXplg-286" edge="1">
          <mxGeometry relative="1" as="geometry">
            <mxPoint x="-10" y="14" as="targetPoint" />
            <mxPoint x="10" y="14" as="sourcePoint" />
          </mxGeometry>
        </mxCell>
        <mxCell id="i1IyLrbdU4EnLdiSXplg-289" value="&lt;font style=&quot;font-size: 8px;&quot;&gt;nro_empleado&lt;/font&gt;" style="text;html=1;align=center;verticalAlign=middle;resizable=0;points=[];autosize=1;strokeColor=none;fillColor=none;rotation=0;" parent="1" vertex="1">
          <mxGeometry x="1504" y="952.0011431703002" width="80" height="30" as="geometry" />
        </mxCell>
        <mxCell id="i1IyLrbdU4EnLdiSXplg-297" style="edgeStyle=orthogonalEdgeStyle;rounded=0;orthogonalLoop=1;jettySize=auto;html=1;entryX=0.75;entryY=0;entryDx=0;entryDy=0;exitX=0.5;exitY=1;exitDx=0;exitDy=0;endArrow=none;startFill=0;" parent="1" source="i1IyLrbdU4EnLdiSXplg-291" target="i1IyLrbdU4EnLdiSXplg-296" edge="1">
          <mxGeometry relative="1" as="geometry" />
        </mxCell>
        <mxCell id="i1IyLrbdU4EnLdiSXplg-291" value="intervino" style="rhombus;whiteSpace=wrap;html=1;" parent="1" vertex="1">
          <mxGeometry x="1340" y="1100" width="80" height="80" as="geometry" />
        </mxCell>
        <mxCell id="i1IyLrbdU4EnLdiSXplg-295" value="" style="edgeStyle=orthogonalEdgeStyle;rounded=0;orthogonalLoop=1;jettySize=auto;html=1;endArrow=none;startFill=0;" parent="1" source="i1IyLrbdU4EnLdiSXplg-293" target="i1IyLrbdU4EnLdiSXplg-213" edge="1">
          <mxGeometry relative="1" as="geometry" />
        </mxCell>
        <mxCell id="i1IyLrbdU4EnLdiSXplg-298" style="edgeStyle=orthogonalEdgeStyle;rounded=0;orthogonalLoop=1;jettySize=auto;html=1;entryX=0.25;entryY=0;entryDx=0;entryDy=0;exitX=0.5;exitY=1;exitDx=0;exitDy=0;endArrow=none;startFill=0;" parent="1" source="i1IyLrbdU4EnLdiSXplg-293" target="i1IyLrbdU4EnLdiSXplg-296" edge="1">
          <mxGeometry relative="1" as="geometry" />
        </mxCell>
        <mxCell id="i1IyLrbdU4EnLdiSXplg-293" value="de" style="rhombus;whiteSpace=wrap;html=1;" parent="1" vertex="1">
          <mxGeometry x="1020" y="1100" width="80" height="80" as="geometry" />
        </mxCell>
        <mxCell id="i1IyLrbdU4EnLdiSXplg-351" style="edgeStyle=orthogonalEdgeStyle;rounded=0;orthogonalLoop=1;jettySize=auto;html=1;entryX=0;entryY=0.5;entryDx=0;entryDy=0;endArrow=none;startFill=0;" parent="1" source="i1IyLrbdU4EnLdiSXplg-296" target="i1IyLrbdU4EnLdiSXplg-350" edge="1">
          <mxGeometry relative="1" as="geometry" />
        </mxCell>
        <mxCell id="i1IyLrbdU4EnLdiSXplg-296" value="Venta" style="rounded=0;whiteSpace=wrap;html=1;" parent="1" vertex="1">
          <mxGeometry x="1120" y="1279.9996189432343" width="200" height="60" as="geometry" />
        </mxCell>
        <mxCell id="i1IyLrbdU4EnLdiSXplg-299" value="(1,n)" style="text;html=1;align=center;verticalAlign=middle;resizable=0;points=[];autosize=1;strokeColor=none;fillColor=none;" parent="1" vertex="1">
          <mxGeometry x="1060" y="1020" width="60" height="30" as="geometry" />
        </mxCell>
        <mxCell id="i1IyLrbdU4EnLdiSXplg-300" value="(0,n)" style="text;html=1;align=center;verticalAlign=middle;resizable=0;points=[];autosize=1;strokeColor=none;fillColor=none;" parent="1" vertex="1">
          <mxGeometry x="1380" y="1020" width="60" height="30" as="geometry" />
        </mxCell>
        <mxCell id="i1IyLrbdU4EnLdiSXplg-301" value="(1,1)" style="text;html=1;align=center;verticalAlign=middle;resizable=0;points=[];autosize=1;strokeColor=none;fillColor=none;" parent="1" vertex="1">
          <mxGeometry x="1110" y="1200" width="60" height="30" as="geometry" />
        </mxCell>
        <mxCell id="i1IyLrbdU4EnLdiSXplg-302" value="(0,1)" style="text;html=1;align=center;verticalAlign=middle;resizable=0;points=[];autosize=1;strokeColor=none;fillColor=none;" parent="1" vertex="1">
          <mxGeometry x="1270" y="1200" width="60" height="30" as="geometry" />
        </mxCell>
        <mxCell id="i1IyLrbdU4EnLdiSXplg-303" value="" style="group;rotation=-90;" parent="1" vertex="1" connectable="0">
          <mxGeometry x="1102" y="1273.0011431703006" width="8" height="28" as="geometry" />
        </mxCell>
        <mxCell id="i1IyLrbdU4EnLdiSXplg-304" value="" style="ellipse;whiteSpace=wrap;html=1;aspect=fixed;fillColor=light-dark(#FFFFFF,#FFFFFF);rotation=-90;" parent="i1IyLrbdU4EnLdiSXplg-303" vertex="1">
          <mxGeometry x="-10" y="10" width="8" height="8" as="geometry" />
        </mxCell>
        <mxCell id="i1IyLrbdU4EnLdiSXplg-305" style="edgeStyle=orthogonalEdgeStyle;rounded=0;orthogonalLoop=1;jettySize=auto;html=1;endArrow=none;startFill=0;" parent="i1IyLrbdU4EnLdiSXplg-303" edge="1">
          <mxGeometry relative="1" as="geometry">
            <mxPoint x="18" y="14" as="targetPoint" />
            <mxPoint x="-2" y="14" as="sourcePoint" />
          </mxGeometry>
        </mxCell>
        <mxCell id="i1IyLrbdU4EnLdiSXplg-306" value="&lt;font style=&quot;font-size: 8px;&quot;&gt;online&lt;/font&gt;" style="text;html=1;align=center;verticalAlign=middle;resizable=0;points=[];autosize=1;strokeColor=none;fillColor=none;rotation=0;" parent="1" vertex="1">
          <mxGeometry x="1048" y="1284.0011431703008" width="50" height="30" as="geometry" />
        </mxCell>
        <mxCell id="i1IyLrbdU4EnLdiSXplg-307" value="" style="group;rotation=-90;" parent="1" vertex="1" connectable="0">
          <mxGeometry x="1102" y="1288.0011431703006" width="8" height="28" as="geometry" />
        </mxCell>
        <mxCell id="i1IyLrbdU4EnLdiSXplg-308" value="" style="ellipse;whiteSpace=wrap;html=1;aspect=fixed;fillColor=light-dark(#FFFFFF,transparent);rotation=-90;" parent="i1IyLrbdU4EnLdiSXplg-307" vertex="1">
          <mxGeometry x="-10" y="10" width="8" height="8" as="geometry" />
        </mxCell>
        <mxCell id="i1IyLrbdU4EnLdiSXplg-309" style="edgeStyle=orthogonalEdgeStyle;rounded=0;orthogonalLoop=1;jettySize=auto;html=1;endArrow=none;startFill=0;" parent="i1IyLrbdU4EnLdiSXplg-307" edge="1">
          <mxGeometry relative="1" as="geometry">
            <mxPoint x="18" y="14" as="targetPoint" />
            <mxPoint x="-2" y="14" as="sourcePoint" />
          </mxGeometry>
        </mxCell>
        <mxCell id="i1IyLrbdU4EnLdiSXplg-313" value="&lt;font style=&quot;font-size: 8px;&quot;&gt;nroTicket&lt;/font&gt;" style="text;html=1;align=center;verticalAlign=middle;resizable=0;points=[];autosize=1;strokeColor=none;fillColor=none;rotation=0;" parent="1" vertex="1">
          <mxGeometry x="1032" y="1270.0011431703" width="70" height="30" as="geometry" />
        </mxCell>
        <mxCell id="i1IyLrbdU4EnLdiSXplg-316" value="" style="group;rotation=-90;" parent="1" vertex="1" connectable="0">
          <mxGeometry x="1102" y="1303.0011431703006" width="8" height="28" as="geometry" />
        </mxCell>
        <mxCell id="i1IyLrbdU4EnLdiSXplg-317" value="" style="ellipse;whiteSpace=wrap;html=1;aspect=fixed;fillColor=light-dark(#FFFFFF,transparent);rotation=-90;" parent="i1IyLrbdU4EnLdiSXplg-316" vertex="1">
          <mxGeometry x="-10" y="10" width="8" height="8" as="geometry" />
        </mxCell>
        <mxCell id="i1IyLrbdU4EnLdiSXplg-318" style="edgeStyle=orthogonalEdgeStyle;rounded=0;orthogonalLoop=1;jettySize=auto;html=1;endArrow=none;startFill=0;" parent="i1IyLrbdU4EnLdiSXplg-316" edge="1">
          <mxGeometry relative="1" as="geometry">
            <mxPoint x="18" y="14" as="targetPoint" />
            <mxPoint x="-2" y="14" as="sourcePoint" />
          </mxGeometry>
        </mxCell>
        <mxCell id="i1IyLrbdU4EnLdiSXplg-319" value="" style="group;rotation=-90;" parent="1" vertex="1" connectable="0">
          <mxGeometry x="1102" y="1317.0011431703006" width="8" height="28" as="geometry" />
        </mxCell>
        <mxCell id="i1IyLrbdU4EnLdiSXplg-320" value="" style="ellipse;whiteSpace=wrap;html=1;aspect=fixed;fillColor=light-dark(#FFFFFF,transparent);rotation=-90;" parent="i1IyLrbdU4EnLdiSXplg-319" vertex="1">
          <mxGeometry x="-10" y="10" width="8" height="8" as="geometry" />
        </mxCell>
        <mxCell id="i1IyLrbdU4EnLdiSXplg-321" style="edgeStyle=orthogonalEdgeStyle;rounded=0;orthogonalLoop=1;jettySize=auto;html=1;endArrow=none;startFill=0;" parent="i1IyLrbdU4EnLdiSXplg-319" edge="1">
          <mxGeometry relative="1" as="geometry">
            <mxPoint x="18" y="14" as="targetPoint" />
            <mxPoint x="-2" y="14" as="sourcePoint" />
          </mxGeometry>
        </mxCell>
        <mxCell id="i1IyLrbdU4EnLdiSXplg-322" value="&lt;font style=&quot;font-size: 8px;&quot;&gt;total&lt;/font&gt;" style="text;html=1;align=center;verticalAlign=middle;resizable=0;points=[];autosize=1;strokeColor=none;fillColor=none;rotation=0;" parent="1" vertex="1">
          <mxGeometry x="1050" y="1300.0011431703008" width="50" height="30" as="geometry" />
        </mxCell>
        <mxCell id="i1IyLrbdU4EnLdiSXplg-323" value="&lt;font style=&quot;font-size: 8px;&quot;&gt;fecha&lt;/font&gt;" style="text;html=1;align=center;verticalAlign=middle;resizable=0;points=[];autosize=1;strokeColor=none;fillColor=none;rotation=0;" parent="1" vertex="1">
          <mxGeometry x="1050" y="1313.0011431703008" width="50" height="30" as="geometry" />
        </mxCell>
        <mxCell id="i1IyLrbdU4EnLdiSXplg-324" value="Producto" style="rounded=0;whiteSpace=wrap;html=1;" parent="1" vertex="1">
          <mxGeometry x="1440" y="1449.9996189432343" width="200" height="60" as="geometry" />
        </mxCell>
        <mxCell id="i1IyLrbdU4EnLdiSXplg-325" value="" style="group;rotation=90;" parent="1" vertex="1" connectable="0">
          <mxGeometry x="1650" y="1441.0011431703006" width="8" height="28" as="geometry" />
        </mxCell>
        <mxCell id="i1IyLrbdU4EnLdiSXplg-326" value="" style="ellipse;whiteSpace=wrap;html=1;aspect=fixed;fillColor=light-dark(#FFFFFF,#FFFFFF);rotation=90;" parent="i1IyLrbdU4EnLdiSXplg-325" vertex="1">
          <mxGeometry x="10" y="10" width="8" height="8" as="geometry" />
        </mxCell>
        <mxCell id="i1IyLrbdU4EnLdiSXplg-327" style="edgeStyle=orthogonalEdgeStyle;rounded=0;orthogonalLoop=1;jettySize=auto;html=1;endArrow=none;startFill=0;" parent="i1IyLrbdU4EnLdiSXplg-325" edge="1">
          <mxGeometry relative="1" as="geometry">
            <mxPoint x="-10" y="14" as="targetPoint" />
            <mxPoint x="10" y="14" as="sourcePoint" />
          </mxGeometry>
        </mxCell>
        <mxCell id="i1IyLrbdU4EnLdiSXplg-328" value="&lt;font style=&quot;font-size: 8px;&quot;&gt;nombre&lt;/font&gt;" style="text;html=1;align=center;verticalAlign=middle;resizable=0;points=[];autosize=1;strokeColor=none;fillColor=none;rotation=0;" parent="1" vertex="1">
          <mxGeometry x="1662" y="1450.0011431703008" width="50" height="30" as="geometry" />
        </mxCell>
        <mxCell id="i1IyLrbdU4EnLdiSXplg-329" value="" style="group;rotation=90;" parent="1" vertex="1" connectable="0">
          <mxGeometry x="1650" y="1453.0011431703006" width="8" height="28" as="geometry" />
        </mxCell>
        <mxCell id="i1IyLrbdU4EnLdiSXplg-330" value="" style="ellipse;whiteSpace=wrap;html=1;aspect=fixed;fillColor=light-dark(#FFFFFF,transparent);rotation=90;" parent="i1IyLrbdU4EnLdiSXplg-329" vertex="1">
          <mxGeometry x="10" y="10" width="8" height="8" as="geometry" />
        </mxCell>
        <mxCell id="i1IyLrbdU4EnLdiSXplg-331" style="edgeStyle=orthogonalEdgeStyle;rounded=0;orthogonalLoop=1;jettySize=auto;html=1;endArrow=none;startFill=0;" parent="i1IyLrbdU4EnLdiSXplg-329" edge="1">
          <mxGeometry relative="1" as="geometry">
            <mxPoint x="-10" y="14" as="targetPoint" />
            <mxPoint x="10" y="14" as="sourcePoint" />
          </mxGeometry>
        </mxCell>
        <mxCell id="i1IyLrbdU4EnLdiSXplg-332" value="" style="group;rotation=90;" parent="1" vertex="1" connectable="0">
          <mxGeometry x="1650" y="1467.0011431703006" width="8" height="28" as="geometry" />
        </mxCell>
        <mxCell id="i1IyLrbdU4EnLdiSXplg-333" value="" style="ellipse;whiteSpace=wrap;html=1;aspect=fixed;fillColor=light-dark(#FFFFFF,transparent);rotation=90;" parent="i1IyLrbdU4EnLdiSXplg-332" vertex="1">
          <mxGeometry x="10" y="10" width="8" height="8" as="geometry" />
        </mxCell>
        <mxCell id="i1IyLrbdU4EnLdiSXplg-334" style="edgeStyle=orthogonalEdgeStyle;rounded=0;orthogonalLoop=1;jettySize=auto;html=1;endArrow=none;startFill=0;" parent="i1IyLrbdU4EnLdiSXplg-332" edge="1">
          <mxGeometry relative="1" as="geometry">
            <mxPoint x="-10" y="14" as="targetPoint" />
            <mxPoint x="10" y="14" as="sourcePoint" />
          </mxGeometry>
        </mxCell>
        <mxCell id="i1IyLrbdU4EnLdiSXplg-335" value="&lt;font style=&quot;font-size: 8px;&quot;&gt;codigo&lt;/font&gt;" style="text;html=1;align=center;verticalAlign=middle;resizable=0;points=[];autosize=1;strokeColor=none;fillColor=none;rotation=0;" parent="1" vertex="1">
          <mxGeometry x="1662" y="1437.0011431703" width="50" height="30" as="geometry" />
        </mxCell>
        <mxCell id="i1IyLrbdU4EnLdiSXplg-336" value="&lt;font style=&quot;font-size: 8px;&quot;&gt;descripcion&lt;/font&gt;" style="text;html=1;align=center;verticalAlign=middle;resizable=0;points=[];autosize=1;strokeColor=none;fillColor=none;rotation=0;" parent="1" vertex="1">
          <mxGeometry x="1659" y="1463.0011431703008" width="80" height="30" as="geometry" />
        </mxCell>
        <mxCell id="i1IyLrbdU4EnLdiSXplg-337" value="" style="group;rotation=90;" parent="1" vertex="1" connectable="0">
          <mxGeometry x="1650" y="1479.0011431703006" width="8" height="28" as="geometry" />
        </mxCell>
        <mxCell id="i1IyLrbdU4EnLdiSXplg-338" value="" style="ellipse;whiteSpace=wrap;html=1;aspect=fixed;fillColor=light-dark(#FFFFFF,transparent);rotation=90;" parent="i1IyLrbdU4EnLdiSXplg-337" vertex="1">
          <mxGeometry x="10" y="10" width="8" height="8" as="geometry" />
        </mxCell>
        <mxCell id="i1IyLrbdU4EnLdiSXplg-339" style="edgeStyle=orthogonalEdgeStyle;rounded=0;orthogonalLoop=1;jettySize=auto;html=1;endArrow=none;startFill=0;" parent="i1IyLrbdU4EnLdiSXplg-337" edge="1">
          <mxGeometry relative="1" as="geometry">
            <mxPoint x="-10" y="14" as="targetPoint" />
            <mxPoint x="10" y="14" as="sourcePoint" />
          </mxGeometry>
        </mxCell>
        <mxCell id="i1IyLrbdU4EnLdiSXplg-340" value="&lt;font style=&quot;font-size: 8px;&quot;&gt;color&lt;/font&gt;" style="text;html=1;align=center;verticalAlign=middle;resizable=0;points=[];autosize=1;strokeColor=none;fillColor=none;rotation=0;" parent="1" vertex="1">
          <mxGeometry x="1660" y="1475.0011431703008" width="50" height="30" as="geometry" />
        </mxCell>
        <mxCell id="i1IyLrbdU4EnLdiSXplg-341" value="" style="group;rotation=90;" parent="1" vertex="1" connectable="0">
          <mxGeometry x="1650" y="1491.0011431703006" width="8" height="28" as="geometry" />
        </mxCell>
        <mxCell id="i1IyLrbdU4EnLdiSXplg-342" value="" style="ellipse;whiteSpace=wrap;html=1;aspect=fixed;fillColor=light-dark(#FFFFFF,transparent);rotation=90;" parent="i1IyLrbdU4EnLdiSXplg-341" vertex="1">
          <mxGeometry x="10" y="10" width="8" height="8" as="geometry" />
        </mxCell>
        <mxCell id="i1IyLrbdU4EnLdiSXplg-343" style="edgeStyle=orthogonalEdgeStyle;rounded=0;orthogonalLoop=1;jettySize=auto;html=1;endArrow=none;startFill=0;" parent="i1IyLrbdU4EnLdiSXplg-341" edge="1">
          <mxGeometry relative="1" as="geometry">
            <mxPoint x="-10" y="14" as="targetPoint" />
            <mxPoint x="10" y="14" as="sourcePoint" />
          </mxGeometry>
        </mxCell>
        <mxCell id="i1IyLrbdU4EnLdiSXplg-344" value="&lt;font style=&quot;font-size: 8px;&quot;&gt;precio&lt;/font&gt;" style="text;html=1;align=center;verticalAlign=middle;resizable=0;points=[];autosize=1;strokeColor=none;fillColor=none;rotation=0;" parent="1" vertex="1">
          <mxGeometry x="1663" y="1487.0011431703008" width="50" height="30" as="geometry" />
        </mxCell>
        <mxCell id="i1IyLrbdU4EnLdiSXplg-346" style="edgeStyle=orthogonalEdgeStyle;rounded=0;orthogonalLoop=1;jettySize=auto;html=1;entryX=0;entryY=0.5;entryDx=0;entryDy=0;endArrow=none;startFill=0;" parent="1" source="i1IyLrbdU4EnLdiSXplg-345" target="i1IyLrbdU4EnLdiSXplg-324" edge="1">
          <mxGeometry relative="1" as="geometry" />
        </mxCell>
        <mxCell id="i1IyLrbdU4EnLdiSXplg-347" style="edgeStyle=orthogonalEdgeStyle;rounded=0;orthogonalLoop=1;jettySize=auto;html=1;entryX=0.5;entryY=1;entryDx=0;entryDy=0;endArrow=none;startFill=0;" parent="1" source="i1IyLrbdU4EnLdiSXplg-345" target="i1IyLrbdU4EnLdiSXplg-296" edge="1">
          <mxGeometry relative="1" as="geometry" />
        </mxCell>
        <mxCell id="i1IyLrbdU4EnLdiSXplg-352" style="edgeStyle=orthogonalEdgeStyle;rounded=0;orthogonalLoop=1;jettySize=auto;html=1;exitX=0;exitY=1;exitDx=0;exitDy=0;endArrow=none;startFill=0;" parent="1" source="i1IyLrbdU4EnLdiSXplg-345" edge="1">
          <mxGeometry relative="1" as="geometry">
            <mxPoint x="1179" y="1529" as="targetPoint" />
          </mxGeometry>
        </mxCell>
        <mxCell id="i1IyLrbdU4EnLdiSXplg-353" style="edgeStyle=orthogonalEdgeStyle;rounded=0;orthogonalLoop=1;jettySize=auto;html=1;exitX=1;exitY=1;exitDx=0;exitDy=0;endArrow=none;startFill=0;" parent="1" source="i1IyLrbdU4EnLdiSXplg-345" edge="1">
          <mxGeometry relative="1" as="geometry">
            <mxPoint x="1259.77295275702" y="1529.927536231884" as="targetPoint" />
          </mxGeometry>
        </mxCell>
        <mxCell id="i1IyLrbdU4EnLdiSXplg-345" value="contiene" style="rhombus;whiteSpace=wrap;html=1;" parent="1" vertex="1">
          <mxGeometry x="1180" y="1440" width="80" height="80" as="geometry" />
        </mxCell>
        <mxCell id="i1IyLrbdU4EnLdiSXplg-348" value="(1,n)" style="text;html=1;align=center;verticalAlign=middle;resizable=0;points=[];autosize=1;strokeColor=none;fillColor=none;" parent="1" vertex="1">
          <mxGeometry x="1220" y="1340" width="60" height="30" as="geometry" />
        </mxCell>
        <mxCell id="i1IyLrbdU4EnLdiSXplg-349" value="(0,n)" style="text;html=1;align=center;verticalAlign=middle;resizable=0;points=[];autosize=1;strokeColor=none;fillColor=none;" parent="1" vertex="1">
          <mxGeometry x="1380" y="1449" width="60" height="30" as="geometry" />
        </mxCell>
        <mxCell id="i1IyLrbdU4EnLdiSXplg-350" value="en" style="rhombus;whiteSpace=wrap;html=1;" parent="1" vertex="1">
          <mxGeometry x="1440" y="1270" width="80" height="80" as="geometry" />
        </mxCell>
        <mxCell id="i1IyLrbdU4EnLdiSXplg-354" value="" style="group;rotation=-90;" parent="1" vertex="1" connectable="0">
          <mxGeometry x="1266" y="1520.0011431703006" width="8" height="28" as="geometry" />
        </mxCell>
        <mxCell id="i1IyLrbdU4EnLdiSXplg-355" value="" style="ellipse;whiteSpace=wrap;html=1;aspect=fixed;fillColor=light-dark(#FFFFFF,transparent);rotation=-90;" parent="i1IyLrbdU4EnLdiSXplg-354" vertex="1">
          <mxGeometry x="-10" y="10" width="8" height="8" as="geometry" />
        </mxCell>
        <mxCell id="i1IyLrbdU4EnLdiSXplg-358" value="" style="group;rotation=-90;" parent="1" vertex="1" connectable="0">
          <mxGeometry x="1185" y="1519.0011431703006" width="8" height="28" as="geometry" />
        </mxCell>
        <mxCell id="i1IyLrbdU4EnLdiSXplg-359" value="" style="ellipse;whiteSpace=wrap;html=1;aspect=fixed;fillColor=light-dark(#FFFFFF,transparent);rotation=-90;" parent="i1IyLrbdU4EnLdiSXplg-358" vertex="1">
          <mxGeometry x="-10" y="10" width="8" height="8" as="geometry" />
        </mxCell>
        <mxCell id="i1IyLrbdU4EnLdiSXplg-360" value="&lt;font style=&quot;font-size: 8px;&quot;&gt;precio&lt;/font&gt;" style="text;html=1;align=center;verticalAlign=middle;resizable=0;points=[];autosize=1;strokeColor=none;fillColor=none;rotation=0;" parent="1" vertex="1">
          <mxGeometry x="1154" y="1528.0011431703008" width="50" height="30" as="geometry" />
        </mxCell>
        <mxCell id="i1IyLrbdU4EnLdiSXplg-361" value="&lt;font style=&quot;font-size: 8px;&quot;&gt;cantidad&lt;/font&gt;" style="text;html=1;align=center;verticalAlign=middle;resizable=0;points=[];autosize=1;strokeColor=none;fillColor=none;rotation=0;" parent="1" vertex="1">
          <mxGeometry x="1231" y="1528.0011431703008" width="60" height="30" as="geometry" />
        </mxCell>
        <mxCell id="i1IyLrbdU4EnLdiSXplg-366" style="edgeStyle=orthogonalEdgeStyle;rounded=0;orthogonalLoop=1;jettySize=auto;html=1;entryX=1;entryY=0.5;entryDx=0;entryDy=0;endArrow=none;startFill=0;" parent="1" source="i1IyLrbdU4EnLdiSXplg-362" target="i1IyLrbdU4EnLdiSXplg-350" edge="1">
          <mxGeometry relative="1" as="geometry" />
        </mxCell>
        <mxCell id="i1IyLrbdU4EnLdiSXplg-362" value="Sucursal" style="rounded=0;whiteSpace=wrap;html=1;" parent="1" vertex="1">
          <mxGeometry x="1619" y="1129.9996189432343" width="200" height="60" as="geometry" />
        </mxCell>
        <mxCell id="i1IyLrbdU4EnLdiSXplg-365" style="edgeStyle=orthogonalEdgeStyle;rounded=0;orthogonalLoop=1;jettySize=auto;html=1;endArrow=none;startFill=0;" parent="1" source="i1IyLrbdU4EnLdiSXplg-363" target="i1IyLrbdU4EnLdiSXplg-362" edge="1">
          <mxGeometry relative="1" as="geometry" />
        </mxCell>
        <mxCell id="i1IyLrbdU4EnLdiSXplg-363" value="trabaja" style="rhombus;whiteSpace=wrap;html=1;" parent="1" vertex="1">
          <mxGeometry x="1679" y="1010" width="80" height="80" as="geometry" />
        </mxCell>
        <mxCell id="i1IyLrbdU4EnLdiSXplg-367" value="(0,n)" style="text;html=1;align=center;verticalAlign=middle;resizable=0;points=[];autosize=1;strokeColor=none;fillColor=none;" parent="1" vertex="1">
          <mxGeometry x="1510" y="1200" width="60" height="30" as="geometry" />
        </mxCell>
        <mxCell id="i1IyLrbdU4EnLdiSXplg-368" value="(1,1)" style="text;html=1;align=center;verticalAlign=middle;resizable=0;points=[];autosize=1;strokeColor=none;fillColor=none;" parent="1" vertex="1">
          <mxGeometry x="1320" y="1280" width="60" height="30" as="geometry" />
        </mxCell>
        <mxCell id="i1IyLrbdU4EnLdiSXplg-369" value="(1,n)" style="text;html=1;align=center;verticalAlign=middle;resizable=0;points=[];autosize=1;strokeColor=none;fillColor=none;" parent="1" vertex="1">
          <mxGeometry x="1480" y="990" width="60" height="30" as="geometry" />
        </mxCell>
        <mxCell id="i1IyLrbdU4EnLdiSXplg-370" value="(0,n)" style="text;html=1;align=center;verticalAlign=middle;resizable=0;points=[];autosize=1;strokeColor=none;fillColor=none;" parent="1" vertex="1">
          <mxGeometry x="1720" y="1100" width="60" height="30" as="geometry" />
        </mxCell>
        <mxCell id="i1IyLrbdU4EnLdiSXplg-372" value="" style="group;rotation=-90;" parent="1" vertex="1" connectable="0">
          <mxGeometry x="1678" y="1019.0011431703006" width="8" height="28" as="geometry" />
        </mxCell>
        <mxCell id="i1IyLrbdU4EnLdiSXplg-373" value="" style="ellipse;whiteSpace=wrap;html=1;aspect=fixed;fillColor=light-dark(#FFFFFF,transparent);rotation=-90;" parent="i1IyLrbdU4EnLdiSXplg-372" vertex="1">
          <mxGeometry x="-10" y="10" width="8" height="8" as="geometry" />
        </mxCell>
        <mxCell id="i1IyLrbdU4EnLdiSXplg-374" style="edgeStyle=orthogonalEdgeStyle;rounded=0;orthogonalLoop=1;jettySize=auto;html=1;endArrow=none;startFill=0;" parent="i1IyLrbdU4EnLdiSXplg-372" edge="1">
          <mxGeometry relative="1" as="geometry">
            <mxPoint x="18" y="14" as="targetPoint" />
            <mxPoint x="-2" y="14" as="sourcePoint" />
          </mxGeometry>
        </mxCell>
        <mxCell id="i1IyLrbdU4EnLdiSXplg-375" value="" style="group;rotation=-90;" parent="1" vertex="1" connectable="0">
          <mxGeometry x="1679" y="1054.0011431703006" width="8" height="28" as="geometry" />
        </mxCell>
        <mxCell id="i1IyLrbdU4EnLdiSXplg-376" value="" style="ellipse;whiteSpace=wrap;html=1;aspect=fixed;fillColor=light-dark(#FFFFFF,transparent);rotation=-90;" parent="i1IyLrbdU4EnLdiSXplg-375" vertex="1">
          <mxGeometry x="-10" y="10" width="8" height="8" as="geometry" />
        </mxCell>
        <mxCell id="i1IyLrbdU4EnLdiSXplg-377" style="edgeStyle=orthogonalEdgeStyle;rounded=0;orthogonalLoop=1;jettySize=auto;html=1;endArrow=none;startFill=0;" parent="i1IyLrbdU4EnLdiSXplg-375" edge="1">
          <mxGeometry relative="1" as="geometry">
            <mxPoint x="18" y="14" as="targetPoint" />
            <mxPoint x="-2" y="14" as="sourcePoint" />
            <Array as="points">
              <mxPoint x="18" y="14" />
            </Array>
          </mxGeometry>
        </mxCell>
        <mxCell id="i1IyLrbdU4EnLdiSXplg-378" value="&lt;font style=&quot;font-size: 8px;&quot;&gt;fecha_inicio&lt;/font&gt;" style="text;html=1;align=center;verticalAlign=middle;resizable=0;points=[];autosize=1;strokeColor=none;fillColor=none;rotation=0;" parent="1" vertex="1">
          <mxGeometry x="1595" y="1016.0011431703008" width="80" height="30" as="geometry" />
        </mxCell>
        <mxCell id="i1IyLrbdU4EnLdiSXplg-379" value="&lt;font style=&quot;font-size: 8px;&quot;&gt;fecha_fin(0,1)&lt;/font&gt;" style="text;html=1;align=center;verticalAlign=middle;resizable=0;points=[];autosize=1;strokeColor=none;fillColor=none;rotation=0;" parent="1" vertex="1">
          <mxGeometry x="1587" y="1051.0011431703008" width="90" height="30" as="geometry" />
        </mxCell>
        <mxCell id="i1IyLrbdU4EnLdiSXplg-380" value="" style="group;rotation=90;" parent="1" vertex="1" connectable="0">
          <mxGeometry x="1829" y="1118.5011431703006" width="8" height="28" as="geometry" />
        </mxCell>
        <mxCell id="i1IyLrbdU4EnLdiSXplg-381" value="" style="ellipse;whiteSpace=wrap;html=1;aspect=fixed;fillColor=light-dark(#FFFFFF,#FFFFFF);rotation=90;" parent="i1IyLrbdU4EnLdiSXplg-380" vertex="1">
          <mxGeometry x="10" y="10" width="8" height="8" as="geometry" />
        </mxCell>
        <mxCell id="i1IyLrbdU4EnLdiSXplg-382" style="edgeStyle=orthogonalEdgeStyle;rounded=0;orthogonalLoop=1;jettySize=auto;html=1;endArrow=none;startFill=0;" parent="i1IyLrbdU4EnLdiSXplg-380" edge="1">
          <mxGeometry relative="1" as="geometry">
            <mxPoint x="-10" y="14" as="targetPoint" />
            <mxPoint x="10" y="14" as="sourcePoint" />
          </mxGeometry>
        </mxCell>
        <mxCell id="i1IyLrbdU4EnLdiSXplg-383" value="&lt;font style=&quot;font-size: 8px;&quot;&gt;nombre&lt;/font&gt;" style="text;html=1;align=center;verticalAlign=middle;resizable=0;points=[];autosize=1;strokeColor=none;fillColor=none;rotation=0;" parent="1" vertex="1">
          <mxGeometry x="1842" y="1113.5011431703" width="50" height="30" as="geometry" />
        </mxCell>
        <mxCell id="i1IyLrbdU4EnLdiSXplg-387" value="&lt;font style=&quot;font-size: 8px;&quot;&gt;calle&lt;/font&gt;" style="text;html=1;align=center;verticalAlign=middle;resizable=0;points=[];autosize=1;strokeColor=none;fillColor=none;rotation=0;" parent="1" vertex="1">
          <mxGeometry x="1840" y="1128.0011431703008" width="50" height="30" as="geometry" />
        </mxCell>
        <mxCell id="i1IyLrbdU4EnLdiSXplg-388" value="" style="group;rotation=90;" parent="1" vertex="1" connectable="0">
          <mxGeometry x="1829" y="1131.0011431703006" width="8" height="28" as="geometry" />
        </mxCell>
        <mxCell id="i1IyLrbdU4EnLdiSXplg-389" value="" style="ellipse;whiteSpace=wrap;html=1;aspect=fixed;fillColor=light-dark(#FFFFFF,transparent);rotation=90;" parent="i1IyLrbdU4EnLdiSXplg-388" vertex="1">
          <mxGeometry x="10" y="10" width="8" height="8" as="geometry" />
        </mxCell>
        <mxCell id="i1IyLrbdU4EnLdiSXplg-390" style="edgeStyle=orthogonalEdgeStyle;rounded=0;orthogonalLoop=1;jettySize=auto;html=1;endArrow=none;startFill=0;" parent="i1IyLrbdU4EnLdiSXplg-388" edge="1">
          <mxGeometry relative="1" as="geometry">
            <mxPoint x="-10" y="14" as="targetPoint" />
            <mxPoint x="10" y="14" as="sourcePoint" />
          </mxGeometry>
        </mxCell>
        <mxCell id="i1IyLrbdU4EnLdiSXplg-391" value="" style="group;rotation=90;" parent="1" vertex="1" connectable="0">
          <mxGeometry x="1829" y="1145.0011431703006" width="8" height="28" as="geometry" />
        </mxCell>
        <mxCell id="i1IyLrbdU4EnLdiSXplg-392" value="" style="ellipse;whiteSpace=wrap;html=1;aspect=fixed;fillColor=light-dark(#FFFFFF,transparent);rotation=90;" parent="i1IyLrbdU4EnLdiSXplg-391" vertex="1">
          <mxGeometry x="10" y="10" width="8" height="8" as="geometry" />
        </mxCell>
        <mxCell id="i1IyLrbdU4EnLdiSXplg-393" style="edgeStyle=orthogonalEdgeStyle;rounded=0;orthogonalLoop=1;jettySize=auto;html=1;endArrow=none;startFill=0;" parent="i1IyLrbdU4EnLdiSXplg-391" edge="1">
          <mxGeometry relative="1" as="geometry">
            <mxPoint x="-10" y="14" as="targetPoint" />
            <mxPoint x="10" y="14" as="sourcePoint" />
          </mxGeometry>
        </mxCell>
        <mxCell id="i1IyLrbdU4EnLdiSXplg-394" value="&lt;font style=&quot;font-size: 8px;&quot;&gt;nro&lt;/font&gt;" style="text;html=1;align=center;verticalAlign=middle;resizable=0;points=[];autosize=1;strokeColor=none;fillColor=none;rotation=0;" parent="1" vertex="1">
          <mxGeometry x="1841" y="1142.0011431703008" width="40" height="30" as="geometry" />
        </mxCell>
        <mxCell id="i1IyLrbdU4EnLdiSXplg-395" value="&lt;font style=&quot;font-size: 8px;&quot;&gt;local(0,1)&lt;/font&gt;" style="text;html=1;align=center;verticalAlign=middle;resizable=0;points=[];autosize=1;strokeColor=none;fillColor=none;rotation=0;" parent="1" vertex="1">
          <mxGeometry x="1843" y="1156.0011431703008" width="70" height="30" as="geometry" />
        </mxCell>
        <mxCell id="i1IyLrbdU4EnLdiSXplg-396" value="" style="group;rotation=90;" parent="1" vertex="1" connectable="0">
          <mxGeometry x="1829" y="1159.0011431703006" width="8" height="28" as="geometry" />
        </mxCell>
        <mxCell id="i1IyLrbdU4EnLdiSXplg-397" value="" style="ellipse;whiteSpace=wrap;html=1;aspect=fixed;fillColor=light-dark(#FFFFFF,transparent);rotation=90;" parent="i1IyLrbdU4EnLdiSXplg-396" vertex="1">
          <mxGeometry x="10" y="10" width="8" height="8" as="geometry" />
        </mxCell>
        <mxCell id="i1IyLrbdU4EnLdiSXplg-398" style="edgeStyle=orthogonalEdgeStyle;rounded=0;orthogonalLoop=1;jettySize=auto;html=1;endArrow=none;startFill=0;" parent="i1IyLrbdU4EnLdiSXplg-396" edge="1">
          <mxGeometry relative="1" as="geometry">
            <mxPoint x="-10" y="14" as="targetPoint" />
            <mxPoint x="10" y="14" as="sourcePoint" />
          </mxGeometry>
        </mxCell>
        <mxCell id="i1IyLrbdU4EnLdiSXplg-399" value="" style="group;rotation=90;" parent="1" vertex="1" connectable="0">
          <mxGeometry x="1829" y="1174.0011431703006" width="8" height="28" as="geometry" />
        </mxCell>
        <mxCell id="i1IyLrbdU4EnLdiSXplg-400" value="" style="ellipse;whiteSpace=wrap;html=1;aspect=fixed;fillColor=light-dark(#FFFFFF,transparent);rotation=90;" parent="i1IyLrbdU4EnLdiSXplg-399" vertex="1">
          <mxGeometry x="10" y="10" width="8" height="8" as="geometry" />
        </mxCell>
        <mxCell id="i1IyLrbdU4EnLdiSXplg-401" style="edgeStyle=orthogonalEdgeStyle;rounded=0;orthogonalLoop=1;jettySize=auto;html=1;endArrow=none;startFill=0;" parent="i1IyLrbdU4EnLdiSXplg-399" edge="1">
          <mxGeometry relative="1" as="geometry">
            <mxPoint x="-10" y="14" as="targetPoint" />
            <mxPoint x="10" y="14" as="sourcePoint" />
          </mxGeometry>
        </mxCell>
        <mxCell id="i1IyLrbdU4EnLdiSXplg-402" value="&lt;font style=&quot;font-size: 8px;&quot;&gt;piso(0,1)&lt;/font&gt;" style="text;html=1;align=center;verticalAlign=middle;resizable=0;points=[];autosize=1;strokeColor=none;fillColor=none;rotation=0;" parent="1" vertex="1">
          <mxGeometry x="1841" y="1169.0011431703008" width="70" height="30" as="geometry" />
        </mxCell>
        <mxCell id="xipFGqAqP6YZN47_D9bf-1" value="" style="curved=1;endArrow=none;html=1;rounded=0;startFill=0;" parent="1" edge="1">
          <mxGeometry width="50" height="50" relative="1" as="geometry">
            <mxPoint x="1438" y="729.5" as="sourcePoint" />
            <mxPoint x="1750" y="691" as="targetPoint" />
            <Array as="points">
              <mxPoint x="1460" y="681" />
              <mxPoint x="1620" y="691" />
            </Array>
          </mxGeometry>
        </mxCell>
        <mxCell id="xipFGqAqP6YZN47_D9bf-2" value="" style="group;rotation=0;" parent="1" vertex="1" connectable="0">
          <mxGeometry x="1749" y="687.0011431703006" width="8" height="28" as="geometry" />
        </mxCell>
        <mxCell id="xipFGqAqP6YZN47_D9bf-3" value="" style="ellipse;whiteSpace=wrap;html=1;aspect=fixed;fillColor=light-dark(#FFFFFF,#FFFFFF);rotation=0;" parent="xipFGqAqP6YZN47_D9bf-2" vertex="1">
          <mxGeometry width="8" height="8" as="geometry" />
        </mxCell>
        <mxCell id="9fdB7ZtBGUbMBqwV06EW-1" value="" style="ellipse;whiteSpace=wrap;html=1;aspect=fixed;fillColor=light-dark(#FFFFFF,#FFFFFF);rotation=90;" vertex="1" parent="1">
          <mxGeometry x="1342" y="944.0011431703006" width="8" height="8" as="geometry" />
        </mxCell>
        <mxCell id="9fdB7ZtBGUbMBqwV06EW-2" value="" style="curved=1;endArrow=none;html=1;rounded=0;startFill=0;entryX=0.5;entryY=0;entryDx=0;entryDy=0;" edge="1" parent="1" target="9fdB7ZtBGUbMBqwV06EW-1">
          <mxGeometry width="50" height="50" relative="1" as="geometry">
            <mxPoint x="1344" y="807" as="sourcePoint" />
            <mxPoint x="1360" y="950" as="targetPoint" />
            <Array as="points">
              <mxPoint x="1480" y="850" />
              <mxPoint x="1429" y="950" />
            </Array>
          </mxGeometry>
        </mxCell>
      </root>
    </mxGraphModel>
  </diagram>
</mxfile>
